HIERARCHY
ROOT root
{
	OFFSET	0	13.1	24.9
	CHANNELS 6  Xposition Yposition Zposition Xrotation Yrotation Zrotation
	JOINT spine_1
	{
		OFFSET	0	9.99999	0
		CHANNELS 3  Xrotation Yrotation Zrotation
		JOINT spine_2
		{
			OFFSET	0	112	-10
			CHANNELS 3  Xrotation Yrotation Zrotation
			JOINT spine_3
			{
				OFFSET	0	206.5	19.3
				CHANNELS 3  Xrotation Yrotation Zrotation
				JOINT spine_4
				{
					OFFSET	0	110.4	14.6
					CHANNELS 3  Xrotation Yrotation Zrotation
					JOINT neck_1
					{
						OFFSET	0	71.8	-50.3
						CHANNELS 3  Xrotation Yrotation Zrotation
						JOINT neck_2
						{
							OFFSET	0	86.2	-25.8
							CHANNELS 3  Xrotation Yrotation Zrotation
							JOINT head_ee
							{
								OFFSET	0	179.8	-8.7
								CHANNELS 3  Xrotation Yrotation Zrotation
								End Site
								{
									OFFSET	1	0	0
								}
							}
						}
					}
					JOINT left_clavicle
					{
						OFFSET	-43.2	22.4	-70.8
						CHANNELS 3  Xrotation Yrotation Zrotation
						JOINT left_shoulder
						{
							OFFSET	-93.9	-5.79999	48.7
							CHANNELS 3  Xrotation Yrotation Zrotation
							JOINT left_elbow
							{
								OFFSET	-291.4	-30.8	15.2
								CHANNELS 3  Xrotation Yrotation Zrotation
								JOINT left_lowarm_twist
								{
									OFFSET	-110.7	-3.89999	13.6
									CHANNELS 3  Xrotation Yrotation Zrotation
									JOINT left_hand
									{
										OFFSET	-110.7	-3.89999	13.6
										CHANNELS 3  Xrotation Yrotation Zrotation
										JOINT left_ee
										{
											OFFSET	-80.8	-5.10001	12.1
											CHANNELS 3  Xrotation Yrotation Zrotation
											End Site
											{
												OFFSET	1	0	0
											}
										}
									}
								}
							}
						}
					}
					JOINT right_clavicle
					{
						OFFSET	43.2	22.4	-70.8
						CHANNELS 3  Xrotation Yrotation Zrotation
						JOINT right_shoulder
						{
							OFFSET	93.9	-5.79999	48.7
							CHANNELS 3  Xrotation Yrotation Zrotation
							JOINT right_elbow
							{
								OFFSET	291.4	-30.8	15.2
								CHANNELS 3  Xrotation Yrotation Zrotation
								JOINT right_lowarm_twist
								{
									OFFSET	110.7	-3.89999	13.6
									CHANNELS 3  Xrotation Yrotation Zrotation
									JOINT right_hand
									{
										OFFSET	110.7	-3.89999	13.6
										CHANNELS 3  Xrotation Yrotation Zrotation
										JOINT right_ee
										{
											OFFSET	80.8	-5.10001	12.1
											CHANNELS 3  Xrotation Yrotation Zrotation
											End Site
											{
												OFFSET	1	0	0
											}
										}
									}
								}
							}
						}
					}
				}
			}
		}
	}
	JOINT left_hip
	{
		OFFSET	-82.8	-127.5	0.300001
		CHANNELS 3  Xrotation Yrotation Zrotation
		JOINT left_knee
		{
			OFFSET	-28.2	-396.7	2.2
			CHANNELS 3  Xrotation Yrotation Zrotation
			JOINT left_ankle
			{
				OFFSET	-11.7	-411.3	35.4
				CHANNELS 3  Xrotation Yrotation Zrotation
				JOINT left_toes
				{
					OFFSET	0	-60	-88.6
					CHANNELS 3  Xrotation Yrotation Zrotation
					JOINT left_foot_ee
					{
						OFFSET	-22.5	-16.5	-42.2
						CHANNELS 3  Xrotation Yrotation Zrotation
						End Site
						{
							OFFSET	1	0	0
						}
					}
				}
			}
		}
	}
	JOINT right_hip
	{
		OFFSET	82.8	-127.5	0.300001
		CHANNELS 3  Xrotation Yrotation Zrotation
		JOINT right_knee
		{
			OFFSET	28.2	-396.7	2.2
			CHANNELS 3  Xrotation Yrotation Zrotation
			JOINT right_ankle
			{
				OFFSET	11.7	-411.3	35.4
				CHANNELS 3  Xrotation Yrotation Zrotation
				JOINT right_toes
				{
					OFFSET	0	-60	-88.6
					CHANNELS 3  Xrotation Yrotation Zrotation
					JOINT right_foot_ee
					{
						OFFSET	22.5	-16.5	-42.2
						CHANNELS 3  Xrotation Yrotation Zrotation
						End Site
						{
							OFFSET	1	0	0
						}
					}
				}
			}
		}
	}
}
MOTION
Frames: 8
Frame Time: 0.02
1384.55 698.716 -1507.58 -22.0827 52.0483 20.1776 8.5782 -0.184933 -1.12 8.57889 -0.113294 -1.1295 8.57983 -0.0430953 -1.13435 8.5781 -0.221692 -1.11331 -25.9236 8.98749 -0.638327 -26.6063 17.5567 4.2225 -0.0 0.0 -0.0 -10.6895 24.3116 -11.9674 -18.1986 -13.1367 81.7876 0.873931 -23.4085 0.181053 -22.5904 -1.31719 2.55187 3.80039 5.42834 28.4313 -0.0 0.0 -0.0 8.43511 6.15339 -16.5113 -22.9805 27.0308 -57.6549 1.44124 35.5228 -0.461682 -18.1773 0.981984 -2.09691 -1.01362 0.103004 6.83016 0.0 0.0 0.0 38.9575 -2.09454 -9.88641 0.0749323 -0.00309292 -0.0110831 -5.45287 18.4937 0.819334 26.1594 -0.0 -0.0 -0.0 0.0 -0.0 8.84081 3.23798 -0.723564 -19.5586 -0.300629 -2.97182 35.6231 9.54714 4.6156 -13.1867 0.0 0.0 0.0 0.0 0.0 
1365.2 698.888 -1513.06 -20.1018 50.6029 18.7712 8.3769 -0.122077 -1.31655 8.37787 -0.0380617 -1.32165 8.37703 0.0485954 -1.3213 8.37463 -0.160671 -1.3124 -27.1566 9.04053 -0.677696 -27.8937 17.6311 4.41572 -0.0 0.0 -0.0 -10.6938 24.271 -11.992 -17.7316 -16.2974 82.095 1.0006 -26.3657 0.234378 -22.346 -1.29771 2.52736 3.89096 5.75498 29.2344 -0.0 0.0 -0.0 8.13787 6.31239 -15.885 -23.5282 27.4225 -58.8688 1.4007 34.7534 -0.438346 -17.488 0.932844 -2.0236 -0.632978 0.352725 4.38357 0.0 0.0 0.0 38.5051 -2.20705 -10.8941 -1.79991 0.0699149 0.267364 -10.7432 19.5416 1.63234 26.616 -0.0 -0.0 -0.0 0.0 -0.0 6.75084 1.24333 -1.14241 -16.5165 -0.320849 -2.50555 35.7512 8.71963 4.61069 -12.3161 0.0 0.0 0.0 0.0 0.0 
1345.48 694.985 -1519.89 -19.3755 50.5864 19.2382 8.33383 -0.176585 -1.51267 8.3351 -0.0799831 -1.52084 8.33496 0.0209196 -1.5228 8.33179 -0.219812 -1.507 -27.965 9.5401 -1.85382 -28.8561 18.9861 3.76148 -0.0 0.0 -0.0 -10.6648 23.9366 -12.1 -15.9762 -18.7117 81.0652 1.18954 -30.5082 0.324408 -21.2681 -1.21307 2.41825 3.73464 5.87005 28.0961 -0.0 0.0 -0.0 7.97216 6.69716 -15.5318 -24.6853 27.7796 -59.4991 1.34452 33.6634 -0.406764 -17.8165 0.956151 -2.05861 -0.355773 0.351883 2.52702 0.0 0.0 0.0 36.5983 -2.24851 -11.1877 -2.69433 0.101521 0.400991 -11.6063 18.6391 1.7602 26.4571 -0.0 -0.0 -0.0 0.0 -0.0 5.70077 1.28537 -1.46456 -18.4247 -0.31106 -2.79815 36.5955 9.4667 4.70674 -12.9484 0.0 0.0 0.0 0.0 0.0 
1329.47 698.203 -1526.93 -18.0728 49.6747 18.9525 8.30436 -0.25348 -1.63654 8.30584 -0.148844 -1.64935 8.30747 -0.0385106 -1.6556 8.30377 -0.299464 -1.62876 -26.0073 9.33851 -3.26234 -26.8167 19.2809 2.01623 -0.0 0.0 -0.0 -10.9717 23.0135 -12.9815 -16.2324 -18.9473 81.5949 1.25825 -31.9339 0.360024 -20.8727 -1.18254 2.37784 3.74312 5.73529 28.1113 -0.0 0.0 -0.0 7.9231 6.23155 -15.4359 -25.2475 27.4851 -60.8081 1.26173 32.0049 -0.361866 -18.6087 1.01319 -2.14249 0.163183 0.986901 -0.675891 0.0 0.0 0.0 34.9229 -2.10838 -12.6718 -3.3075 0.12198 0.49287 -13.043 19.0156 1.98348 25.0342 -0.0 -0.0 -0.0 0.0 -0.0 5.54125 0.0848308 -1.33183 -20.7481 -0.285996 -3.15374 35.3126 9.63537 4.58739 -14.1052 0.0 0.0 0.0 0.0 0.0 
1309.09 705.069 -1533.16 -17.4366 49.6414 19.5238 8.14791 -0.401353 -1.76314 8.1496 -0.288365 -1.78509 8.15556 -0.163961 -1.80078 8.15131 -0.446259 -1.75231 -25.4336 9.27071 -4.96094 -26.2332 19.8936 0.312986 -0.0 0.0 -0.0 -11.1316 22.7633 -13.3421 -16.0947 -21.2524 80.9226 1.35496 -33.868 0.412564 -20.5655 -1.15901 2.34629 3.56171 6.01919 26.8606 -0.0 0.0 -0.0 7.46127 4.93932 -14.4936 -26.7046 27.037 -60.9529 1.19844 30.6952 -0.328936 -19.6385 1.08906 -2.25036 0.497468 1.35526 -2.76178 0.0 0.0 0.0 33.643 -2.02842 -13.4684 -3.85911 0.139543 0.575704 -13.4538 18.734 2.04498 23.8603 -0.0 -0.0 -0.0 0.0 -0.0 4.75638 -0.647834 -1.4056 -21.2348 -0.278919 -3.22809 35.6532 9.98928 4.62817 -14.7404 0.0 0.0 0.0 0.0 0.0 
1289.79 707.333 -1543.82 -15.6232 49.6815 19.1569 8.17798 -0.441734 -1.69235 8.17951 -0.333166 -1.71702 8.1867 -0.214334 -1.73586 8.18282 -0.485752 -1.68025 -24.1876 9.2838 -5.27513 -24.9412 20.1797 -0.173336 -0.0 0.0 -0.0 -12.1016 22.3817 -15.0434 -15.0555 -23.2207 81.4967 1.49071 -36.4418 0.490748 -21.3754 -1.2214 2.42918 2.60436 9.02472 21.041 -0.0 0.0 -0.0 7.38579 3.90973 -14.351 -27.1442 27.1879 -62.8314 1.01821 26.7654 -0.242253 -21.2778 1.21382 -2.41924 0.682695 1.16468 -4.0839 0.0 0.0 0.0 31.3441 -1.88052 -14.5322 -5.26073 0.180573 0.786891 -8.43635 19.9477 1.27968 22.3603 -0.0 -0.0 -0.0 0.0 -0.0 4.37114 -4.81359 -2.96498 -21.5072 -0.274683 -3.26968 35.868 8.66024 4.62071 -15.8327 0.0 0.0 0.0 0.0 0.0 
1276.75 710.5 -1554.38 -16.5026 49.1925 21.0217 8.32333 -0.495016 -1.70294 8.32486 -0.385667 -1.73097 8.33362 -0.270274 -1.7527 8.32974 -0.543649 -1.68805 -23.5369 9.22352 -5.79364 -24.2564 20.3598 -0.793516 -0.0 0.0 -0.0 -12.526 21.621 -16.111 -14.077 -24.6083 81.4617 1.58946 -38.2131 0.550635 -21.5673 -1.23635 2.44869 2.3311 9.93773 19.4678 -0.0 0.0 -0.0 7.20698 2.2231 -14.0006 -27.2566 27.2528 -64.4641 0.928762 24.7059 -0.203406 -22.4173 1.30338 -2.53451 0.886345 1.1794 -5.44667 0.0 0.0 0.0 30.643 -1.92399 -16.2121 -5.20121 0.178935 0.777903 -8.08177 21.9783 1.23478 21.6479 -0.0 -0.0 -0.0 0.0 -0.0 3.4192 -7.2347 -4.44693 -21.6542 -0.272316 -3.2921 36.1766 10.3414 4.68642 -16.2683 0.0 0.0 0.0 0.0 0.0 
1263.35 721.038 -1564.4 -17.8406 49.7197 23.1678 8.1493 -0.815965 -1.73632 8.1507 -0.703843 -1.7847 8.16985 -0.579138 -1.82896 8.16621 -0.860679 -1.7146 -23.9381 9.8019 -2.51017 -24.721 19.9917 2.61574 -0.0 0.0 -0.0 -12.2086 21.2903 -15.7589 -9.87147 -23.7163 79.9299 1.5498 -37.5117 0.52629 -21.9853 -1.26916 2.49102 1.38264 13.3145 14.3035 -0.0 0.0 -0.0 7.15179 -0.420578 -13.8919 -27.6656 27.1478 -64.8877 0.784377 21.2339 -0.147035 -23.3188 1.37585 -2.62445 0.192448 0.00221732 -1.2843 0.0 0.0 0.0 28.1696 -1.26883 -17.5775 -0.776507 0.0311938 0.115081 -8.13777 13.3559 1.21405 19.4272 -0.0 -0.0 -0.0 0.0 -0.0 4.78734 -8.4121 -4.91945 -22.823 -0.25144 -3.47023 32.7609 6.86483 4.27989 -17.5932 0.0 0.0 0.0 0.0 0.0 
